<svg xmlns="http://www.w3.org/2000/svg" viewBox="0 0 800 360" role="img" aria-labelledby="tdip">
<title id="tdip">The club's inverted-V dipole — two legs of a dead orange extension cord — hangs from the school flagpole with a fat 8-turn coax choke at the feedpoint, while the radio club looks up from the lawn</title>
<rect x="0" y="0" width="800" height="360" fill="#3f6db5"/>
<g>
  <circle cx="92" cy="266" r="28" fill="#ffd25e" opacity="0.25"/>
  <circle cx="92" cy="266" r="17" fill="#ffd25e"/>
</g>
<g stroke="#fdfcf7" fill="none" stroke-linecap="round">
  <path d="M455 78 q70 -16 150 -6" stroke-width="6" opacity="0.5"/>
  <path d="M540 118 q55 -12 120 -4" stroke-width="5" opacity="0.4"/>
  <path d="M52 234 q45 -10 95 -2" stroke-width="5" opacity="0.45"/>
  <path d="M648 162 q40 -8 90 -2" stroke-width="4" opacity="0.3"/>
</g>
<path d="M0 360 L0 308 Q400 290 800 308 L800 360 Z" fill="#d8cfae"/>
<path d="M706 314 L762 314 L800 360 L684 360 Z" fill="#b3a265"/>
<g>
  <rect x="612" y="198" width="176" height="116" fill="#d95555"/>
  <rect x="606" y="190" width="188" height="10" fill="#1a3a6b"/>
  <rect x="630" y="216" width="24" height="26" fill="#fdfcf7"/>
  <rect x="694" y="216" width="24" height="26" fill="#fdfcf7"/>
  <rect x="752" y="216" width="24" height="26" fill="#fdfcf7"/>
  <rect x="630" y="268" width="32" height="30" fill="#ffd25e"/>
  <rect x="758" y="268" width="22" height="30" fill="#fdfcf7"/>
  <rect x="714" y="266" width="30" height="48" fill="#1a3a6b"/>
  <circle cx="738" cy="292" r="2" fill="#d8cfae"/>
</g>
<g stroke="#1a3a6b" fill="none">
  <g stroke-width="1.5" opacity="0.4">
    <line x1="40" y1="306" x2="100" y2="270"/><line x1="100" y1="306" x2="160" y2="270"/><line x1="160" y1="306" x2="220" y2="270"/>
    <line x1="40" y1="270" x2="100" y2="306"/><line x1="100" y1="270" x2="160" y2="306"/><line x1="160" y1="270" x2="220" y2="306"/>
  </g>
  <line x1="40" y1="270" x2="220" y2="270" stroke-width="2.5"/>
  <line x1="40" y1="268" x2="40" y2="306" stroke-width="3"/>
  <line x1="100" y1="268" x2="100" y2="306" stroke-width="3"/>
  <line x1="160" y1="268" x2="160" y2="306" stroke-width="3"/>
  <line x1="220" y1="264" x2="220" y2="306" stroke-width="4"/>
</g>
<g>
  <rect x="172" y="248" width="10" height="60" fill="#1a3a6b"/>
  <circle cx="150" cy="228" r="21" fill="#e8734a"/>
  <circle cx="200" cy="226" r="19" fill="#b3a265"/>
  <circle cx="175" cy="202" r="18" fill="#d95555"/>
  <circle cx="162" cy="246" r="16" fill="#ffd25e"/>
  <circle cx="190" cy="248" r="14" fill="#e8734a"/>
  <ellipse cx="140" cy="310" rx="5" ry="2.5" fill="#d95555"/>
  <ellipse cx="205" cy="313" rx="5" ry="2.5" fill="#e8734a"/>
  <ellipse cx="170" cy="317" rx="4" ry="2" fill="#b3a265"/>
</g>
<ellipse cx="700" cy="332" rx="5" ry="2.5" fill="#b3a265"/>
<ellipse cx="742" cy="344" rx="4" ry="2" fill="#d95555"/>
<ellipse cx="620" cy="309" rx="12" ry="6" fill="#58b368"/>
<g>
  <ellipse cx="400" cy="307" rx="13" ry="4.5" fill="#1a3a6b"/>
  <rect x="396" y="50" width="8" height="256" fill="#fdfcf7" stroke="#1a3a6b" stroke-width="2"/>
  <line x1="392" y1="50" x2="392" y2="246" stroke="#d8cfae" stroke-width="2"/>
  <path d="M386 241 L398 249 M386 249 L398 241" stroke="#1a3a6b" stroke-width="2.5" fill="none"/>
  <line x1="407" y1="50" x2="407" y2="250" stroke="#b3a265" stroke-width="2"/>
  <line x1="403" y1="248" x2="411" y2="252" stroke="#1a3a6b" stroke-width="2"/>
  <rect x="393" y="42" width="14" height="9" rx="3" fill="#b3a265"/>
  <circle cx="400" cy="36" r="4.5" fill="#ffd25e"/>
</g>
<g>
  <line x1="254" y1="204" x2="220" y2="276" stroke="#d8cfae" stroke-width="2.5"/>
  <line x1="546" y1="204" x2="600" y2="300" stroke="#d8cfae" stroke-width="2.5"/>
  <line x1="594" y1="306" x2="606" y2="294" stroke="#1a3a6b" stroke-width="3" stroke-linecap="round"/>
  <circle cx="600" cy="300" r="3" fill="#1a3a6b"/>
  <path d="M395 62 Q322 132 254 200" fill="none" stroke="#e8734a" stroke-width="4" stroke-linecap="round"/>
  <path d="M405 62 Q478 132 546 200" fill="none" stroke="#e8734a" stroke-width="4" stroke-linecap="round"/>
  <path d="M462 108 Q480 126 496 142" fill="none" stroke="#ffd25e" stroke-width="2" stroke-linecap="round"/>
  <line x1="254" y1="204" x2="254" y2="214" stroke="#e8734a" stroke-width="2.5" stroke-linecap="round"/>
  <line x1="546" y1="204" x2="546" y2="214" stroke="#e8734a" stroke-width="2.5" stroke-linecap="round"/>
  <circle cx="254" cy="200" r="4" fill="#d8cfae" stroke="#1a3a6b" stroke-width="1.5"/>
  <circle cx="546" cy="200" r="4" fill="#d8cfae" stroke="#1a3a6b" stroke-width="1.5"/>
  <rect x="391" y="52" width="18" height="11" rx="3" fill="#d8cfae" stroke="#1a3a6b" stroke-width="1.5"/>
</g>
<g>
  <line x1="400" y1="63" x2="400" y2="73" stroke="#0f2a52" stroke-width="3.5"/>
  <circle cx="400" cy="84" r="11" fill="none" stroke="#0f2a52" stroke-width="3"/>
  <circle cx="400" cy="84" r="7.5" fill="none" stroke="#0f2a52" stroke-width="3"/>
  <circle cx="400" cy="84" r="4" fill="none" stroke="#0f2a52" stroke-width="3"/>
  <line x1="394" y1="93" x2="406" y2="93" stroke="#d95555" stroke-width="2"/>
</g>
<g>
  <path d="M400 95 C 412 140, 388 176, 400 212 C 412 248, 390 272, 400 296" fill="none" stroke="#0f2a52" stroke-width="3.5"/>
  <g stroke="#b3a265" stroke-width="3">
    <line x1="392" y1="146" x2="408" y2="146"/>
    <line x1="392" y1="196" x2="408" y2="196"/>
    <line x1="392" y1="246" x2="408" y2="246"/>
    <line x1="392" y1="282" x2="408" y2="282"/>
  </g>
  <path d="M400 296 C 460 306, 560 308, 634 296" fill="none" stroke="#0f2a52" stroke-width="3.5"/>
  <rect x="560" y="300" width="28" height="9" rx="4.5" fill="#0f2a52"/>
</g>
<g fill="#1a3a6b">
  <circle cx="440" cy="270" r="6"/>
  <rect x="433" y="277" width="14" height="31" rx="7"/>
  <circle cx="466" cy="276" r="5"/>
  <rect x="460" y="282" width="12" height="26" rx="6"/>
  <circle cx="492" cy="274" r="5"/>
  <rect x="486" y="280" width="12" height="28" rx="6"/>
  <circle cx="518" cy="277" r="5"/>
  <rect x="512" y="283" width="12" height="25" rx="6"/>
  <circle cx="546" cy="275" r="5"/>
  <rect x="540" y="281" width="12" height="27" rx="6"/>
  <line x1="541" y1="285" x2="528" y2="264" stroke="#1a3a6b" stroke-width="3.5" stroke-linecap="round"/>
</g>
<g font-family="Georgia, serif" fill="#fdfcf7">
  <text x="300" y="34" text-anchor="middle" font-size="13">apex ≈ 28 ft</text>
  <line x1="340" y1="37" x2="389" y2="50" stroke="#fdfcf7" stroke-width="1.5" opacity="0.7"/>
  <text x="352" y="84" text-anchor="end" font-size="12.5">8-turn choke</text>
  <line x1="356" y1="84" x2="372" y2="84" stroke="#fdfcf7" stroke-width="1.5" opacity="0.7"/>
  <text x="556" y="180" text-anchor="start" font-size="12">≈ 12 ft</text>
  <text x="651" y="261" text-anchor="middle" font-size="11">Room 114-B</text>
</g>
</svg>
