<svg xmlns="http://www.w3.org/2000/svg" viewBox="0 0 800 360" role="img" aria-labelledby="tdump">
<title id="tdump">On a warm August dusk, a girl with one leg hooked over a dumpster's rim reaches for a battleship-gray transceiver with a glowing green dial, tangled among a boombox and a microwave behind Hackett's TV &amp; Stereo</title>
<rect x="0" y="0" width="800" height="360" fill="#0f2a52"/>
<circle cx="200" cy="305" r="115" fill="#ffd25e" opacity="0.22"/>
<g fill="#fdfcf7" opacity="0.8">
  <circle cx="60" cy="40" r="2"/><circle cx="140" cy="66" r="1.5"/><circle cx="240" cy="36" r="1.8"/>
  <circle cx="330" cy="58" r="1.4"/><circle cx="410" cy="30" r="1.6"/><circle cx="90" cy="116" r="1.4"/>
  <circle cx="390" cy="96" r="1.3"/><circle cx="300" cy="90" r="1.2"/>
</g>
<g>
  <rect x="440" y="30" width="360" height="275" fill="#d95555" opacity="0.5"/>
  <g stroke="#0f2a52" stroke-width="2" opacity="0.3">
    <line x1="440" y1="54" x2="800" y2="54"/><line x1="440" y1="78" x2="800" y2="78"/>
    <line x1="440" y1="102" x2="800" y2="102"/><line x1="440" y1="126" x2="800" y2="126"/>
    <line x1="440" y1="150" x2="800" y2="150"/><line x1="440" y1="174" x2="800" y2="174"/>
    <line x1="440" y1="198" x2="800" y2="198"/><line x1="440" y1="222" x2="800" y2="222"/>
    <line x1="440" y1="246" x2="800" y2="246"/><line x1="440" y1="270" x2="800" y2="270"/>
    <line x1="440" y1="294" x2="800" y2="294"/>
  </g>
  <rect x="434" y="24" width="372" height="9" fill="#1a3a6b"/>
  <line x1="440" y1="30" x2="440" y2="305" stroke="#1a3a6b" stroke-width="4"/>
</g>
<g transform="rotate(-1.5 620 105)">
  <text x="620" y="90" text-anchor="middle" fill="#d8cfae" font-size="25" letter-spacing="3" font-family="Georgia, serif">HACKETT'S</text>
  <text x="620" y="117" text-anchor="middle" fill="#d8cfae" font-size="16" letter-spacing="4" font-family="Georgia, serif">TV &amp; STEREO</text>
  <path d="M546 130 Q620 138 694 128" fill="none" stroke="#b3a265" stroke-width="3" stroke-linecap="round"/>
  <circle cx="530" cy="84" r="2" fill="#b3a265"/><circle cx="710" cy="84" r="2" fill="#b3a265"/>
</g>
<g>
  <rect x="462" y="176" width="62" height="129" fill="#1a3a6b"/>
  <rect x="458" y="172" width="70" height="133" fill="none" stroke="#0f2a52" stroke-width="4"/>
  <rect x="454" y="305" width="78" height="8" fill="#0f2a52"/>
</g>
<g fill="#000000">
  <circle cx="540" cy="206" r="11" fill="#d8cfae"/>
  <circle cx="541" cy="208" r="10"/>
  <rect x="529" y="218" width="23" height="46" rx="9"/>
  <rect x="532" y="262" width="8" height="38"/>
  <rect x="542" y="262" width="8" height="38"/>
  <rect x="546" y="298" width="12" height="5"/>
  <polyline points="531,226 526,250 528,262" fill="none" stroke="#000000" stroke-width="8" stroke-linecap="round"/>
</g>
<g>
  <rect x="556" y="284" width="30" height="18" fill="#b3a265"/>
  <polyline points="558,284 562,278 566,283 570,278 574,283 578,279 582,283" fill="none" stroke="#e8734a" stroke-width="2"/>
  <polyline points="560,286 565,282 569,286" fill="none" stroke="#000000" stroke-width="2"/>
</g>
<rect x="0" y="305" width="800" height="55" fill="#1a3a6b"/>
<line x1="0" y1="305" x2="800" y2="305" stroke="#0f2a52" stroke-width="3"/>
<g>
  <rect x="56" y="318" width="66" height="6" rx="3" fill="#d95555"/>
  <circle cx="68" cy="328" r="4" fill="#0f2a52"/><circle cx="110" cy="328" r="4" fill="#0f2a52"/>
  <rect x="72" y="290" width="34" height="28" fill="#3f6db5" stroke="#1a3a6b" stroke-width="3"/>
  <line x1="83" y1="290" x2="83" y2="318" stroke="#1a3a6b" stroke-width="2"/>
  <line x1="94" y1="290" x2="94" y2="318" stroke="#1a3a6b" stroke-width="2"/>
  <line x1="72" y1="304" x2="106" y2="304" stroke="#1a3a6b" stroke-width="2"/>
</g>
<g>
  <polygon points="152,190 428,190 398,112 122,112" fill="#58b368" stroke="#1a3a6b" stroke-width="4"/>
  <polygon points="152,190 428,190 398,112 122,112" fill="#1a3a6b" opacity="0.2"/>
</g>
<rect x="150" y="178" width="280" height="20" fill="#0f2a52"/>
<g transform="rotate(-4 211 178)">
  <rect x="176" y="158" width="70" height="40" rx="4" fill="#d8cfae" stroke="#1a3a6b" stroke-width="3"/>
  <rect x="182" y="164" width="40" height="28" fill="#1a3a6b"/>
  <rect x="226" y="164" width="14" height="28" fill="#b3a265"/>
  <circle cx="233" cy="170" r="2" fill="#1a3a6b"/><circle cx="233" cy="178" r="2" fill="#1a3a6b"/>
</g>
<g>
  <path d="M368 150 Q390 134 412 150" fill="none" stroke="#1a3a6b" stroke-width="4"/>
  <rect x="352" y="150" width="74" height="44" rx="6" fill="#3f6db5" stroke="#1a3a6b" stroke-width="3"/>
  <circle cx="372" cy="172" r="11" fill="#0f2a52" stroke="#b3a265" stroke-width="3"/>
  <circle cx="406" cy="172" r="11" fill="#0f2a52" stroke="#b3a265" stroke-width="3"/>
  <rect x="386" y="164" width="12" height="16" fill="#b3a265"/>
  <polyline points="352,158 358,162 355,168" fill="none" stroke="#1a3a6b" stroke-width="1.5"/>
</g>
<g>
  <rect x="256" y="130" width="92" height="64" rx="5" fill="#d8cfae" stroke="#1a3a6b" stroke-width="4"/>
  <path d="M256 142 l7 -12 l5 12 Z" fill="#1a3a6b" opacity="0.8"/>
  <g stroke="#1a3a6b" stroke-width="2" opacity="0.5">
    <line x1="296" y1="136" x2="304" y2="136"/><line x1="310" y1="136" x2="318" y2="136"/><line x1="324" y1="136" x2="332" y2="136"/>
  </g>
  <rect x="264" y="140" width="24" height="14" rx="2" fill="#fdfcf7" stroke="#1a3a6b" stroke-width="2"/>
  <line x1="276" y1="152" x2="284" y2="143" stroke="#000000" stroke-width="1.5"/>
  <text x="343" y="148" text-anchor="end" fill="#1a3a6b" font-size="6" letter-spacing="0.5" font-family="Georgia, serif">TS-520S</text>
  <circle cx="312" cy="168" r="27" fill="#58b368" opacity="0.28"/>
  <circle cx="312" cy="168" r="19" fill="#0f2a52" stroke="#58b368" stroke-width="3"/>
  <text x="312" y="164" text-anchor="middle" fill="#58b368" font-size="6.5" font-family="Georgia, serif">3.5·7·14</text>
  <text x="312" y="173" text-anchor="middle" fill="#58b368" font-size="6.5" font-family="Georgia, serif">21·28</text>
  <line x1="312" y1="168" x2="320" y2="157" stroke="#ffd25e" stroke-width="2" stroke-linecap="round"/>
  <circle cx="312" cy="168" r="2" fill="#58b368"/>
  <circle cx="264" cy="180" r="5" fill="#1a3a6b" stroke="#b3a265" stroke-width="1.5"/>
  <circle cx="278" cy="180" r="5" fill="#1a3a6b" stroke="#b3a265" stroke-width="1.5"/>
  <circle cx="264" cy="188" r="3.5" fill="#1a3a6b"/><circle cx="278" cy="188" r="3.5" fill="#1a3a6b"/>
  <line x1="338" y1="182" x2="338" y2="190" stroke="#1a3a6b" stroke-width="2"/>
  <circle cx="338" cy="180" r="2.5" fill="#d95555"/>
</g>
<g fill="#000000">
  <circle cx="139" cy="94" r="6"/>
  <circle cx="154" cy="101" r="12"/>
  <rect x="143" y="112" width="20" height="48" rx="9" transform="rotate(14 153 136)"/>
  <polyline points="158,118 198,138 252,160" fill="none" stroke="#000000" stroke-width="9" stroke-linecap="round" stroke-linejoin="round"/>
  <polyline points="152,120 140,158 150,190" fill="none" stroke="#000000" stroke-width="9" stroke-linecap="round" stroke-linejoin="round"/>
  <polyline points="150,162 184,176 200,198" fill="none" stroke="#000000" stroke-width="12" stroke-linecap="round"/>
  <rect x="139" y="149" width="5" height="9" rx="2" fill="#ffd25e" transform="rotate(14 141 153)"/>
</g>
<g>
  <polygon points="150,206 430,206 416,306 164,306" fill="#58b368"/>
  <g stroke="#1a3a6b" stroke-width="4" opacity="0.55">
    <line x1="205" y1="212" x2="205" y2="300"/><line x1="260" y1="212" x2="260" y2="300"/>
    <line x1="315" y1="212" x2="315" y2="300"/><line x1="370" y1="212" x2="370" y2="300"/>
  </g>
  <rect x="168" y="296" width="244" height="10" fill="#1a3a6b"/>
  <circle cx="192" cy="316" r="7" fill="#0f2a52"/><circle cx="392" cy="316" r="7" fill="#0f2a52"/>
  <rect x="144" y="192" width="292" height="14" rx="5" fill="#1a3a6b"/>
</g>
<polyline points="147,160 168,199 174,252" fill="none" stroke="#000000" stroke-width="12" stroke-linecap="round"/>
<ellipse cx="177" cy="256" rx="9" ry="4.5" fill="#000000"/>
<g>
  <circle cx="88" cy="242" r="2.5" fill="#ffd25e"/>
  <path d="M80 248 q6 5 12 2" fill="none" stroke="#ffd25e" stroke-width="1.5" stroke-dasharray="2 3" opacity="0.7"/>
  <circle cx="452" cy="140" r="2.5" fill="#ffd25e"/>
  <path d="M444 146 q6 4 12 1" fill="none" stroke="#ffd25e" stroke-width="1.5" stroke-dasharray="2 3" opacity="0.7"/>
  <circle cx="392" cy="258" r="2.5" fill="#58b368"/>
  <path d="M384 264 q6 4 12 1" fill="none" stroke="#58b368" stroke-width="1.5" stroke-dasharray="2 3" opacity="0.7"/>
  <circle cx="618" cy="268" r="2.5" fill="#ffd25e"/>
  <path d="M610 274 q6 4 12 1" fill="none" stroke="#ffd25e" stroke-width="1.5" stroke-dasharray="2 3" opacity="0.7"/>
  <circle cx="726" cy="180" r="2" fill="#ffd25e" opacity="0.9"/>
</g>
</svg>
