<svg xmlns="http://www.w3.org/2000/svg" viewBox="0 0 800 360" role="img" aria-labelledby="t5">
<title id="t5">A 16-and-a-half-foot dipole glows between two bare January oaks at dusk while its dashed signal skips off the ionosphere across the dark Pacific to a rising sun flagged JA</title>
<rect x="0" y="0" width="800" height="360" fill="#0f2a52"/>
<g fill="#fdfcf7" opacity="0.85">
  <circle cx="60" cy="36" r="1.8"/><circle cx="140" cy="24" r="1.4"/><circle cx="225" cy="44" r="1.6"/>
  <circle cx="315" cy="26" r="1.4"/><circle cx="410" cy="20" r="1.6"/><circle cx="500" cy="26" r="1.4"/>
  <circle cx="585" cy="40" r="1.6"/><circle cx="668" cy="26" r="1.4"/><circle cx="736" cy="54" r="1.8"/>
  <circle cx="770" cy="96" r="1.5"/><circle cx="28" cy="92" r="1.5"/><circle cx="700" cy="64" r="1.3"/>
  <circle cx="545" cy="62" r="1.3"/>
</g>
<g>
  <ellipse cx="140" cy="240" rx="230" ry="14" fill="#3f6db5" opacity="0.45"/>
  <ellipse cx="140" cy="258" rx="215" ry="16" fill="#d95555" opacity="0.35"/>
  <ellipse cx="140" cy="290" rx="190" ry="38" fill="#e8734a" opacity="0.55"/>
</g>
<ellipse cx="712" cy="300" rx="105" ry="20" fill="#e8734a" opacity="0.5"/>
<ellipse cx="712" cy="300" rx="60" ry="12" fill="#ffd25e" opacity="0.35"/>
<circle cx="95" cy="290" r="30" fill="#ffd25e"/>
<circle cx="712" cy="300" r="26" fill="#ffd25e"/>
<path d="M40 128 Q400 44 760 128" fill="none" stroke="#b3a265" stroke-width="14" opacity="0.5" stroke-dasharray="14 10"/>
<text x="400" y="64" text-anchor="middle" fill="#d8cfae" font-size="15" font-family="Georgia, serif">ionosphere — still charged from the day</text>
<rect x="520" y="300" width="280" height="60" fill="#0f2a52"/>
<g stroke="#3f6db5" stroke-width="3" stroke-linecap="round" opacity="0.9">
  <line x1="596" y1="318" x2="634" y2="318"/><line x1="650" y1="332" x2="690" y2="332"/>
  <line x1="742" y1="320" x2="778" y2="320"/><line x1="604" y1="344" x2="644" y2="344"/>
  <line x1="742" y1="346" x2="770" y2="346"/>
</g>
<g stroke="#ffd25e" stroke-width="3" stroke-linecap="round" opacity="0.75">
  <line x1="702" y1="312" x2="722" y2="312"/><line x1="706" y1="324" x2="720" y2="324"/>
  <line x1="709" y1="336" x2="717" y2="336"/>
</g>
<ellipse cx="728" cy="301" rx="24" ry="5.5" fill="#000000"/>
<line x1="730" y1="298" x2="730" y2="258" stroke="#d8cfae" stroke-width="2.5"/>
<rect x="730" y="258" width="20" height="13" fill="#fdfcf7"/>
<circle cx="740" cy="264.5" r="4" fill="#d95555"/>
<text x="716" y="348" text-anchor="middle" fill="#fdfcf7" font-size="13" font-family="Georgia, serif">JA — sunrise</text>
<path d="M0 360 L0 290 C100 283 180 285 250 290 C330 296 420 298 480 294 C530 290 565 291 585 297 L585 360 Z" fill="#1a3a6b"/>
<g stroke="#b3a265" stroke-linecap="round">
  <line x1="130" y1="296" x2="130" y2="278" stroke-width="3"/>
  <line x1="160" y1="295" x2="160" y2="277" stroke-width="3"/>
  <line x1="190" y1="294" x2="190" y2="276" stroke-width="3"/>
  <line x1="120" y1="282" x2="205" y2="285" stroke-width="2"/>
</g>
<g fill="#000000">
  <rect x="455" y="248" width="70" height="48"/>
  <path d="M448 250 L490 224 L532 250 Z"/>
</g>
<rect x="464" y="262" width="9" height="9" fill="#ffd25e"/>
<rect x="480" y="266" width="20" height="30" fill="#ffd25e"/>
<g fill="#000000">
  <circle cx="490" cy="275" r="3.5"/>
  <rect x="486.5" y="279" width="7" height="17" rx="3"/>
</g>
<g stroke="#000000" fill="none" stroke-linecap="round">
  <path d="M210 296 C206 268 208 244 209 214" stroke-width="8"/>
  <path d="M208 262 C198 248 190 240 182 230" stroke-width="4.5"/>
  <path d="M209 250 C220 240 226 232 234 224" stroke-width="4.5"/>
  <path d="M207 236 C200 226 196 218 192 208" stroke-width="4.5"/>
  <path d="M208 232 C216 222 222 216 228 206" stroke-width="4.5"/>
  <path d="M182 230 L172 222" stroke-width="2.5"/>
  <path d="M182 230 L178 218" stroke-width="2.5"/>
  <path d="M234 224 L242 214" stroke-width="2.5"/>
  <path d="M234 224 L246 222" stroke-width="2.5"/>
  <path d="M192 208 L186 198" stroke-width="2.5"/>
  <path d="M228 206 L232 196" stroke-width="2.5"/>
</g>
<g stroke="#000000" fill="none" stroke-linecap="round">
  <path d="M390 298 C393 270 391 246 390 216" stroke-width="8"/>
  <path d="M391 260 C400 248 408 240 416 232" stroke-width="4.5"/>
  <path d="M390 250 C380 240 374 234 366 226" stroke-width="4.5"/>
  <path d="M390 234 C398 224 404 218 410 210" stroke-width="4.5"/>
  <path d="M390 230 C382 222 376 216 370 208" stroke-width="4.5"/>
  <path d="M416 232 L426 226" stroke-width="2.5"/>
  <path d="M416 232 L422 222" stroke-width="2.5"/>
  <path d="M366 226 L356 220" stroke-width="2.5"/>
  <path d="M366 226 L360 216" stroke-width="2.5"/>
  <path d="M410 210 L416 200" stroke-width="2.5"/>
  <path d="M370 208 L364 198" stroke-width="2.5"/>
</g>
<path d="M210 216 Q300 246 390 218" fill="none" stroke="#ffd25e" stroke-width="2.5"/>
<circle cx="300" cy="231" r="3.5" fill="#ffd25e"/>
<line x1="300" y1="231" x2="300" y2="270" stroke="#d8cfae" stroke-width="2"/>
<g fill="#000000">
  <circle cx="250" cy="262" r="4.5"/>
  <rect x="245" y="266" width="10" height="29" rx="4"/>
  <line x1="244" y1="258" x2="256" y2="258" stroke="#000000" stroke-width="3" stroke-linecap="round"/>
  <circle cx="272" cy="270" r="4"/>
  <rect x="268" y="274" width="8" height="22" rx="3.5"/>
  <circle cx="293" cy="273" r="3.8"/>
  <rect x="289" y="277" width="8" height="19" rx="3.5"/>
  <circle cx="314" cy="271" r="4"/>
  <rect x="310" y="275" width="8" height="21" rx="3.5"/>
  <line x1="316" y1="280" x2="327" y2="266" stroke="#000000" stroke-width="3" stroke-linecap="round"/>
  <ellipse cx="348" cy="294" rx="7" ry="4"/>
  <circle cx="356" cy="289" r="3.2"/>
  <circle cx="356" cy="285" r="1.5"/>
  <line x1="341" y1="291" x2="336" y2="285" stroke="#000000" stroke-width="2.5" stroke-linecap="round"/>
</g>
<path d="M300 231 Q420 118 560 97" fill="none" stroke="#ffd25e" stroke-width="4" stroke-dasharray="10 8" stroke-linecap="round"/>
<path d="M560 97 Q648 118 700 284" fill="none" stroke="#ffd25e" stroke-width="4" stroke-dasharray="10 8" stroke-linecap="round"/>
<path d="M700 284 L687 269 L711 270 Z" fill="#ffd25e"/>
<text x="150" y="220" text-anchor="middle" fill="#d8cfae" font-size="13" font-style="italic" font-family="Georgia, serif">the gray line</text>
</svg>
