<svg xmlns="http://www.w3.org/2000/svg" viewBox="0 0 800 360" role="img" aria-labelledby="tjpole">
<title id="tjpole">The Copper Cactus: a shiny copper J-pole with its tall radiator, short stub, tee, and four-turn coax choke stands on a block-ballasted tripod on the school roof, with a far-off squall line, rain shaft, and water tower under a March sky</title>
<rect x="0" y="0" width="800" height="360" fill="#3f6db5"/>
<g>
  <circle cx="725" cy="52" r="18" fill="#ffd25e"/>
  <g stroke="#ffd25e" stroke-width="3.5" stroke-linecap="round">
    <line x1="725" y1="16" x2="725" y2="26"/><line x1="725" y1="78" x2="725" y2="88"/>
    <line x1="689" y1="52" x2="699" y2="52"/><line x1="751" y1="52" x2="761" y2="52"/>
    <line x1="707" y1="34" x2="712" y2="27"/><line x1="743" y1="70" x2="738" y2="77"/>
    <line x1="743" y1="34" x2="738" y2="27"/><line x1="707" y1="70" x2="712" y2="77"/>
  </g>
</g>
<g fill="#fdfcf7" opacity="0.92">
  <ellipse cx="542" cy="132" rx="16" ry="8"/><ellipse cx="560" cy="126" rx="20" ry="10"/><ellipse cx="578" cy="132" rx="14" ry="7"/>
  <ellipse cx="406" cy="68" rx="12" ry="6"/><ellipse cx="420" cy="63" rx="15" ry="7"/><ellipse cx="434" cy="68" rx="10" ry="5"/>
</g>
<g>
  <path d="M0 190 L0 78 Q38 52 76 72 Q104 40 150 60 Q190 44 216 68 Q252 60 268 88 L268 190 Z" fill="#0f2a52"/>
  <path d="M0 190 L0 156 Q70 142 140 154 Q210 142 268 162 L268 190 Z" fill="#1a3a6b"/>
  <path d="M8 190 L118 190 L152 250 L0 250 Z" fill="#1a3a6b" opacity="0.45"/>
  <g stroke="#1a3a6b" stroke-width="2" opacity="0.6" stroke-dasharray="5 5">
    <line x1="176" y1="196" x2="170" y2="246"/><line x1="200" y1="194" x2="194" y2="246"/>
    <line x1="224" y1="196" x2="218" y2="246"/><line x1="248" y1="198" x2="242" y2="246"/>
  </g>
  <polyline points="94,192 86,214 94,211 84,236" fill="none" stroke="#ffd25e" stroke-width="3" stroke-linejoin="round" stroke-linecap="round"/>
</g>
<text x="134" y="32" text-anchor="middle" fill="#d8cfae" font-size="13" font-family="Georgia, serif">squall line, miles away</text>
<rect x="0" y="240" width="800" height="10" fill="#1a3a6b"/>
<circle cx="430" cy="240" r="5" fill="#58b368"/><circle cx="610" cy="240" r="6" fill="#58b368"/><circle cx="650" cy="241" r="5" fill="#58b368"/>
<g fill="#0f2a52" stroke="#0f2a52">
  <line x1="306" y1="250" x2="315" y2="210" stroke-width="3"/>
  <line x1="334" y1="250" x2="325" y2="210" stroke-width="3"/>
  <line x1="309" y1="236" x2="331" y2="222" stroke-width="2"/>
  <line x1="331" y1="236" x2="309" y2="222" stroke-width="2"/>
  <ellipse cx="320" cy="196" rx="27" ry="18" stroke="none"/>
  <path d="M293 192 L320 174 L347 192 Z" stroke="none"/>
  <line x1="320" y1="174" x2="320" y2="164" stroke-width="2.5"/>
</g>
<g>
  <line x1="764" y1="252" x2="764" y2="138" stroke="#1a3a6b" stroke-width="4"/>
  <circle cx="764" cy="136" r="3" fill="#b3a265"/>
  <path d="M764 140 Q782 144 796 141 L796 163 Q782 167 764 163 Z" fill="#d95555"/>
</g>
<rect x="0" y="250" width="800" height="110" fill="#d8cfae"/>
<rect x="0" y="246" width="800" height="8" fill="#b3a265"/>
<rect x="0" y="344" width="800" height="16" fill="#b3a265"/>
<g fill="#b3a265" opacity="0.8">
  <circle cx="60" cy="300" r="1.6"/><circle cx="110" cy="335" r="1.6"/><circle cx="150" cy="290" r="1.6"/>
  <circle cx="205" cy="330" r="1.6"/><circle cx="240" cy="300" r="1.6"/><circle cx="290" cy="340" r="1.6"/>
  <circle cx="330" cy="285" r="1.6"/><circle cx="370" cy="332" r="1.6"/><circle cx="420" cy="300" r="1.6"/>
  <circle cx="470" cy="350" r="1.6"/><circle cx="520" cy="342" r="1.6"/><circle cx="590" cy="300" r="1.6"/>
  <circle cx="610" cy="340" r="1.6"/><circle cx="700" cy="300" r="1.6"/><circle cx="740" cy="335" r="1.6"/>
  <circle cx="780" cy="290" r="1.6"/>
</g>
<g>
  <rect x="82" y="222" width="13" height="28" fill="#1a3a6b"/>
  <ellipse cx="88.5" cy="222" rx="10" ry="4" fill="#0f2a52"/>
</g>
<g stroke="#1a3a6b" stroke-linecap="round">
  <line x1="501" y1="270" x2="448" y2="320" stroke-width="6"/>
  <line x1="502" y1="270" x2="556" y2="320" stroke-width="6"/>
  <line x1="501.5" y1="272" x2="501.5" y2="320" stroke-width="5"/>
</g>
<rect x="436" y="320" width="24" height="5" fill="#0f2a52"/>
<rect x="544" y="320" width="24" height="5" fill="#0f2a52"/>
<rect x="489" y="320" width="24" height="5" fill="#0f2a52"/>
<g>
  <rect x="432" y="309" width="30" height="11" fill="#fdfcf7"/>
  <rect x="438" y="312" width="6" height="5" fill="#b3a265"/><rect x="450" y="312" width="6" height="5" fill="#b3a265"/>
  <rect x="440" y="298" width="30" height="11" fill="#fdfcf7"/>
  <rect x="446" y="301" width="6" height="5" fill="#b3a265"/><rect x="458" y="301" width="6" height="5" fill="#b3a265"/>
  <rect x="540" y="309" width="30" height="11" fill="#fdfcf7"/>
  <rect x="546" y="312" width="6" height="5" fill="#b3a265"/><rect x="558" y="312" width="6" height="5" fill="#b3a265"/>
  <rect x="548" y="298" width="30" height="11" fill="#fdfcf7"/>
  <rect x="554" y="301" width="6" height="5" fill="#b3a265"/><rect x="566" y="301" width="6" height="5" fill="#b3a265"/>
  <rect x="486" y="309" width="30" height="11" fill="#fdfcf7"/>
  <rect x="492" y="312" width="6" height="5" fill="#b3a265"/><rect x="504" y="312" width="6" height="5" fill="#b3a265"/>
</g>
<rect x="498" y="176" width="7" height="82" fill="#1a3a6b"/>
<rect x="490" y="258" width="23" height="14" rx="3" fill="#1a3a6b"/>
<g>
  <rect x="482" y="200" width="11" height="69" fill="#e8734a"/>
  <rect x="479" y="195" width="17" height="6" rx="3" fill="#e8734a"/>
  <rect x="485" y="206" width="2.5" height="56" fill="#ffd25e" opacity="0.7"/>
  <rect x="510" y="78" width="11" height="191" fill="#e8734a"/>
  <rect x="507" y="73" width="17" height="6" rx="3" fill="#e8734a"/>
  <rect x="513" y="84" width="2.5" height="178" fill="#ffd25e" opacity="0.7"/>
  <rect x="478" y="264" width="48" height="10" rx="4" fill="#e8734a"/>
  <rect x="497" y="274" width="9" height="8" fill="#e8734a"/>
</g>
<g>
  <rect x="480" y="214" width="44" height="5" fill="#d8cfae"/>
  <rect x="520" y="214" width="4" height="5" fill="#b3a265"/>
  <rect x="480" y="242" width="44" height="5" fill="#d8cfae"/>
  <rect x="520" y="242" width="4" height="5" fill="#b3a265"/>
</g>
<g stroke="#0f2a52" fill="none">
  <circle cx="487.5" cy="253" r="3" fill="#0f2a52" stroke="none"/>
  <circle cx="515.5" cy="253" r="3" fill="#0f2a52" stroke="none"/>
  <line x1="487.5" y1="256" x2="498" y2="265" stroke-width="2.5"/>
  <line x1="515.5" y1="256" x2="506" y2="265" stroke-width="2.5"/>
  <line x1="503" y1="265" x2="503" y2="281" stroke-width="2.5"/>
  <ellipse cx="503" cy="284" rx="15" ry="5.5" stroke-width="2.5"/>
  <ellipse cx="503" cy="290" rx="15" ry="5.5" stroke-width="2.5"/>
  <ellipse cx="503" cy="296" rx="15" ry="5.5" stroke-width="2.5"/>
  <ellipse cx="503" cy="302" rx="15" ry="5.5" stroke-width="2.5"/>
  <path d="M503 308 C513 326 470 332 430 330 C370 328 300 318 252 294 C222 278 192 258 174 248 L169 242" stroke-width="2.5" stroke-linecap="round"/>
</g>
<g fill="#1a3a6b">
  <circle cx="618" cy="266" r="8"/>
  <rect x="611" y="274" width="15" height="28" rx="7"/>
  <rect x="613" y="302" width="5.5" height="28"/><rect x="621" y="302" width="5.5" height="28"/>
  <circle cx="646" cy="262" r="8"/>
  <rect x="638" y="270" width="16" height="30" rx="7"/>
  <rect x="640" y="300" width="5.5" height="30"/><rect x="648" y="300" width="5.5" height="30"/>
  <circle cx="678" cy="252" r="9"/>
  <rect x="669" y="261" width="18" height="32" rx="8"/>
  <rect x="671" y="293" width="6.5" height="37"/><rect x="679" y="293" width="6.5" height="37"/>
</g>
<g stroke="#1a3a6b" stroke-linecap="round" fill="none">
  <line x1="614" y1="279" x2="584" y2="251" stroke-width="4.5"/>
  <line x1="640" y1="276" x2="634" y2="289" stroke-width="4"/>
  <line x1="652" y1="276" x2="658" y2="289" stroke-width="4"/>
</g>
<text x="540" y="96" fill="#fdfcf7" font-size="15" font-style="italic" font-family="Georgia, serif">the Copper Cactus</text>
</svg>
