<svg xmlns="http://www.w3.org/2000/svg" viewBox="0 0 800 360" role="img" aria-labelledby="tloop">
<title id="tloop">On a snowy February night, a three-foot copper-pipe magnetic loop disguised with ivy stands in a plant stand on an apartment balcony, backed by a warm window where a girl sits on the floor listening to a small radio</title>
<rect x="0" y="0" width="800" height="360" fill="#0f2a52"/>
<g fill="#fdfcf7" opacity="0.8">
  <circle cx="150" cy="24" r="2"/><circle cx="330" cy="18" r="1.5"/><circle cx="520" cy="28" r="2"/>
  <circle cx="610" cy="16" r="1.5"/><circle cx="66" cy="38" r="1.4"/><circle cx="430" cy="38" r="1.3"/>
  <circle cx="250" cy="42" r="1.4"/><circle cx="760" cy="44" r="1.4"/>
</g>
<g>
  <circle cx="716" cy="28" r="15" fill="#ffd25e"/>
  <circle cx="710" cy="23" r="13" fill="#0f2a52"/>
</g>
<rect x="0" y="52" width="800" height="308" fill="#1a3a6b"/>
<g>
  <rect x="70" y="64" width="180" height="96" fill="#0f2a52"/>
  <rect x="310" y="64" width="180" height="96" fill="#0f2a52"/>
  <rect x="530" y="64" width="180" height="96" fill="#0f2a52"/>
  <g stroke="#1a3a6b" stroke-width="3">
    <line x1="160" y1="64" x2="160" y2="160"/><line x1="400" y1="64" x2="400" y2="160"/><line x1="620" y1="64" x2="620" y2="160"/>
  </g>
  <g stroke="#b3a265" stroke-width="4" opacity="0.45" stroke-linecap="round">
    <line x1="60" y1="116" x2="260" y2="116"/><line x1="300" y1="116" x2="500" y2="116"/><line x1="520" y1="116" x2="740" y2="116"/>
  </g>
  <g stroke="#b3a265" stroke-width="2.5" opacity="0.45">
    <line x1="76" y1="116" x2="76" y2="168"/><line x1="92" y1="116" x2="92" y2="168"/><line x1="108" y1="116" x2="108" y2="168"/><line x1="124" y1="116" x2="124" y2="168"/><line x1="140" y1="116" x2="140" y2="168"/><line x1="156" y1="116" x2="156" y2="168"/><line x1="172" y1="116" x2="172" y2="168"/><line x1="188" y1="116" x2="188" y2="168"/><line x1="204" y1="116" x2="204" y2="168"/><line x1="220" y1="116" x2="220" y2="168"/><line x1="236" y1="116" x2="236" y2="168"/>
    <line x1="316" y1="116" x2="316" y2="168"/><line x1="332" y1="116" x2="332" y2="168"/><line x1="348" y1="116" x2="348" y2="168"/><line x1="364" y1="116" x2="364" y2="168"/><line x1="380" y1="116" x2="380" y2="168"/><line x1="396" y1="116" x2="396" y2="168"/><line x1="412" y1="116" x2="412" y2="168"/><line x1="428" y1="116" x2="428" y2="168"/><line x1="444" y1="116" x2="444" y2="168"/><line x1="460" y1="116" x2="460" y2="168"/><line x1="476" y1="116" x2="476" y2="168"/>
    <line x1="556" y1="116" x2="556" y2="168"/><line x1="572" y1="116" x2="572" y2="168"/><line x1="588" y1="116" x2="588" y2="168"/><line x1="604" y1="116" x2="604" y2="168"/><line x1="620" y1="116" x2="620" y2="168"/><line x1="636" y1="116" x2="636" y2="168"/><line x1="652" y1="116" x2="652" y2="168"/><line x1="668" y1="116" x2="668" y2="168"/><line x1="684" y1="116" x2="684" y2="168"/><line x1="700" y1="116" x2="700" y2="168"/><line x1="716" y1="116" x2="716" y2="168"/>
  </g>
  <rect x="52" y="168" width="216" height="12" fill="#0f2a52"/>
  <rect x="292" y="168" width="216" height="12" fill="#0f2a52"/>
  <rect x="512" y="168" width="216" height="12" fill="#0f2a52"/>
  <g stroke="#b3a265" stroke-width="2.5" opacity="0.45">
    <line x1="52" y1="168" x2="268" y2="168"/><line x1="292" y1="168" x2="508" y2="168"/><line x1="512" y1="168" x2="728" y2="168"/>
  </g>
</g>
<g>
  <rect x="70" y="190" width="180" height="142" fill="#0f2a52"/>
  <line x1="160" y1="190" x2="160" y2="332" stroke="#1a3a6b" stroke-width="3"/>
  <rect x="52" y="334" width="216" height="14" fill="#0f2a52"/>
  <line x1="52" y1="334" x2="268" y2="334" stroke="#b3a265" stroke-width="2.5" opacity="0.45"/>
  <line x1="60" y1="266" x2="260" y2="266" stroke="#b3a265" stroke-width="4" opacity="0.45" stroke-linecap="round"/>
  <g stroke="#b3a265" stroke-width="2.5" opacity="0.45">
    <line x1="76" y1="266" x2="76" y2="334"/><line x1="92" y1="266" x2="92" y2="334"/><line x1="108" y1="266" x2="108" y2="334"/><line x1="124" y1="266" x2="124" y2="334"/><line x1="140" y1="266" x2="140" y2="334"/><line x1="156" y1="266" x2="156" y2="334"/><line x1="172" y1="266" x2="172" y2="334"/><line x1="188" y1="266" x2="188" y2="334"/><line x1="204" y1="266" x2="204" y2="334"/><line x1="220" y1="266" x2="220" y2="334"/><line x1="236" y1="266" x2="236" y2="334"/>
  </g>
  <ellipse cx="92" cy="333" rx="16" ry="3.5" fill="#fdfcf7" opacity="0.8"/>
</g>
<g>
  <rect x="530" y="190" width="180" height="142" fill="#0f2a52"/>
  <line x1="620" y1="190" x2="620" y2="332" stroke="#1a3a6b" stroke-width="3"/>
  <rect x="512" y="334" width="216" height="14" fill="#0f2a52"/>
  <line x1="512" y1="334" x2="728" y2="334" stroke="#b3a265" stroke-width="2.5" opacity="0.45"/>
  <line x1="520" y1="266" x2="740" y2="266" stroke="#b3a265" stroke-width="4" opacity="0.45" stroke-linecap="round"/>
  <g stroke="#b3a265" stroke-width="2.5" opacity="0.45">
    <line x1="556" y1="266" x2="556" y2="334"/><line x1="572" y1="266" x2="572" y2="334"/><line x1="588" y1="266" x2="588" y2="334"/><line x1="604" y1="266" x2="604" y2="334"/><line x1="620" y1="266" x2="620" y2="334"/><line x1="636" y1="266" x2="636" y2="334"/><line x1="652" y1="266" x2="652" y2="334"/><line x1="668" y1="266" x2="668" y2="334"/><line x1="684" y1="266" x2="684" y2="334"/><line x1="700" y1="266" x2="700" y2="334"/><line x1="716" y1="266" x2="716" y2="334"/>
  </g>
  <ellipse cx="690" cy="334" rx="14" ry="3" fill="#fdfcf7" opacity="0.8"/>
</g>
<g>
  <rect x="296" y="178" width="208" height="162" rx="10" fill="#ffd25e" opacity="0.16"/>
  <rect x="310" y="190" width="180" height="142" fill="#ffd25e"/>
  <rect x="310" y="190" width="180" height="142" fill="none" stroke="#0f2a52" stroke-width="5"/>
  <line x1="400" y1="190" x2="400" y2="332" stroke="#0f2a52" stroke-width="3" opacity="0.7"/>
  <ellipse cx="340" cy="331" rx="28" ry="5" fill="#d95555" opacity="0.9"/>
  <g fill="#0f2a52">
    <circle cx="328" cy="273" r="4.5"/>
    <circle cx="336" cy="280" r="10"/>
    <path d="M336 290 C320 298 316 316 318 332 L354 332 C356 316 352 298 336 290 Z"/>
  </g>
  <g>
    <rect x="368" y="314" width="28" height="18" rx="3" fill="#0f2a52"/>
    <circle cx="375" cy="323" r="3.2" fill="#ffd25e"/>
    <circle cx="388" cy="320" r="2.2" fill="#d8cfae"/>
    <line x1="396" y1="314" x2="404" y2="298" stroke="#0f2a52" stroke-width="2"/>
  </g>
  <text x="428" y="320" fill="#0f2a52" font-size="12" font-style="italic" font-family="Georgia, serif" opacity="0.75">…snow tires</text>
</g>
<g>
  <rect x="292" y="334" width="216" height="14" fill="#0f2a52"/>
  <line x1="292" y1="334" x2="508" y2="334" stroke="#b3a265" stroke-width="3"/>
  <ellipse cx="400" cy="334" rx="95" ry="7" fill="#ffd25e" opacity="0.3"/>
  <ellipse cx="318" cy="333" rx="18" ry="4" fill="#fdfcf7" opacity="0.95"/>
  <ellipse cx="480" cy="334" rx="12" ry="3" fill="#fdfcf7" opacity="0.95"/>
  <g stroke="#000000" stroke-width="4" stroke-linecap="round">
    <line x1="376" y1="308" x2="358" y2="278"/>
    <line x1="424" y1="308" x2="442" y2="278"/>
  </g>
  <rect x="366" y="304" width="68" height="10" rx="3" fill="#d95555"/>
  <path d="M372 314 L428 314 L420 334 L380 334 Z" fill="#d95555"/>
  <path d="M381 297 A54 54 0 1 1 419 297" fill="none" stroke="#e8734a" stroke-width="8" stroke-linecap="round"/>
  <g stroke="#e8734a" stroke-width="4" stroke-linecap="round">
    <line x1="381" y1="297" x2="387" y2="291"/>
    <line x1="419" y1="297" x2="413" y2="291"/>
  </g>
  <rect x="384" y="290" width="32" height="22" rx="3" fill="#d8cfae" stroke="#0f2a52" stroke-width="2.5"/>
  <circle cx="388" cy="293" r="1.8" fill="#b3a265"/>
  <circle cx="412" cy="293" r="1.8" fill="#b3a265"/>
  <circle cx="400" cy="301" r="4" fill="#1a3a6b"/>
  <line x1="400" y1="301" x2="403" y2="298" stroke="#d8cfae" stroke-width="1.5"/>
  <g fill="#58b368">
    <circle cx="451" cy="264" r="6"/><circle cx="458" cy="271" r="4.2"/>
    <circle cx="441" cy="281" r="6"/><circle cx="447" cy="288" r="4"/>
    <circle cx="427" cy="293" r="5.2"/><circle cx="433" cy="298" r="3.8"/>
    <circle cx="373" cy="293" r="5.2"/><circle cx="367" cy="298" r="3.8"/>
    <circle cx="359" cy="281" r="6"/><circle cx="353" cy="288" r="4.2"/>
    <circle cx="349" cy="264" r="6"/><circle cx="342" cy="271" r="4.2"/><circle cx="355" cy="258" r="4"/>
  </g>
  <path d="M416 302 C442 314 460 322 476 328" fill="none" stroke="#0f2a52" stroke-width="4.5" stroke-linecap="round"/>
  <path d="M416 302 C442 314 460 322 476 328" fill="none" stroke="#fdfcf7" stroke-width="2.5" stroke-linecap="round"/>
  <rect x="474" y="321" width="10" height="10" rx="2" fill="#d8cfae" stroke="#0f2a52" stroke-width="1.5"/>
  <g stroke="#b3a265" stroke-width="2.5">
    <line x1="316" y1="266" x2="316" y2="334"/><line x1="332" y1="266" x2="332" y2="334"/><line x1="348" y1="266" x2="348" y2="334"/><line x1="364" y1="266" x2="364" y2="334"/><line x1="380" y1="266" x2="380" y2="334"/><line x1="396" y1="266" x2="396" y2="334"/><line x1="412" y1="266" x2="412" y2="334"/><line x1="428" y1="266" x2="428" y2="334"/><line x1="444" y1="266" x2="444" y2="334"/><line x1="460" y1="266" x2="460" y2="334"/><line x1="476" y1="266" x2="476" y2="334"/><line x1="492" y1="266" x2="492" y2="334"/>
  </g>
  <line x1="300" y1="266" x2="500" y2="266" stroke="#b3a265" stroke-width="4" stroke-linecap="round"/>
  <g stroke="#fdfcf7" stroke-width="2.5" stroke-linecap="round" opacity="0.9">
    <line x1="320" y1="264" x2="352" y2="264"/>
    <line x1="428" y1="264" x2="468" y2="264"/>
  </g>
</g>
<text x="24" y="36" fill="#d8cfae" font-size="16" font-style="italic" font-family="Georgia, serif">definitely a plant stand</text>
<g fill="#fdfcf7" opacity="0.85">
  <circle cx="36" cy="84" r="2.2"/><circle cx="150" cy="96" r="2.4"/><circle cx="262" cy="88" r="2"/>
  <circle cx="286" cy="186" r="1.6"/><circle cx="56" cy="210" r="2.4"/><circle cx="120" cy="262" r="1.8"/>
  <circle cx="180" cy="300" r="2.2"/><circle cx="236" cy="240" r="1.5"/><circle cx="528" cy="120" r="2.2"/>
  <circle cx="590" cy="88" r="2.4"/><circle cx="700" cy="200" r="2.2"/><circle cx="770" cy="250" r="2.4"/>
  <circle cx="724" cy="300" r="1.8"/><circle cx="660" cy="320" r="2"/><circle cx="540" cy="300" r="1.6"/>
  <circle cx="500" cy="60" r="1.8"/><circle cx="360" cy="50" r="1.5"/><circle cx="30" cy="320" r="2"/>
  <circle cx="766" cy="60" r="2"/><circle cx="610" cy="260" r="1.8"/><circle cx="470" cy="230" r="1.8"/><circle cx="322" cy="214" r="1.6"/>
</g>
<g fill="#fdfcf7" opacity="0.55">
  <circle cx="210" cy="150" r="1.6"/><circle cx="560" cy="180" r="1.6"/><circle cx="748" cy="120" r="1.6"/>
  <circle cx="272" cy="308" r="2"/><circle cx="170" cy="200" r="1.4"/><circle cx="440" cy="90" r="1.4"/><circle cx="640" cy="150" r="1.8"/>
</g>
<g stroke="#fdfcf7" stroke-width="1.6" stroke-linecap="round" opacity="0.85">
  <line x1="113" y1="150" x2="127" y2="150"/><line x1="116.5" y1="144" x2="123.5" y2="156"/><line x1="123.5" y1="144" x2="116.5" y2="156"/>
  <line x1="693" y1="96" x2="707" y2="96"/><line x1="696.5" y1="90" x2="703.5" y2="102"/><line x1="703.5" y1="90" x2="696.5" y2="102"/>
</g>
</svg>
