<svg xmlns="http://www.w3.org/2000/svg" viewBox="0 0 800 360" role="img" aria-labelledby="t2">
<title id="t2">On a school rooftop at night, eight red soda cans stacked mouth-to-base on a vertical broomstick form a dipole antenna — four cans up, four down, with a one-inch gap at the center and a coiled coax choke — while three kids listen and the signal reaches a repeater tower's red beacon on a distant hill under the stars</title>
<rect x="0" y="0" width="800" height="360" fill="#0f2a52"/>
<g fill="#fdfcf7" opacity="0.8">
  <circle cx="180" cy="40" r="2"/><circle cx="265" cy="72" r="1.5"/><circle cx="340" cy="34" r="1.8"/>
  <circle cx="430" cy="60" r="1.4"/><circle cx="530" cy="24" r="2"/><circle cx="604" cy="78" r="1.5"/>
  <circle cx="710" cy="44" r="1.8"/><circle cx="765" cy="96" r="1.4"/><circle cx="44" cy="148" r="1.6"/>
  <circle cx="150" cy="120" r="1.4"/><circle cx="238" cy="158" r="1.3"/><circle cx="470" cy="116" r="1.4"/>
</g>
<g>
  <circle cx="95" cy="60" r="20" fill="#ffd25e"/>
  <circle cx="104" cy="53" r="17" fill="#0f2a52"/>
</g>
<path d="M460 272 C540 208 596 188 652 196 C716 205 768 240 800 234 L800 272 Z" fill="#3f6db5" opacity="0.45"/>
<g>
  <line x1="652" y1="196" x2="652" y2="132" stroke="#d8cfae" stroke-width="4"/>
  <line x1="642" y1="196" x2="652" y2="132" stroke="#b3a265" stroke-width="2.5"/>
  <line x1="662" y1="196" x2="652" y2="132" stroke="#b3a265" stroke-width="2.5"/>
  <line x1="645" y1="168" x2="659" y2="168" stroke="#b3a265" stroke-width="2"/>
  <line x1="647" y1="152" x2="657" y2="152" stroke="#b3a265" stroke-width="2"/>
  <circle cx="652" cy="127" r="10" fill="none" stroke="#d95555" stroke-width="2" opacity="0.4"/>
  <circle cx="652" cy="127" r="5" fill="#d95555"/>
</g>
<path d="M384 98 Q512 36 646 122" fill="none" stroke="#e8734a" stroke-width="3.5" stroke-linecap="round" stroke-dasharray="9 8" opacity="0.9"/>
<path d="M646 122 l-15 -5 l4 13 Z" fill="#e8734a"/>
<rect x="0" y="268" width="800" height="6" fill="#d8cfae"/>
<rect x="0" y="274" width="800" height="86" fill="#1a3a6b"/>
<line x1="0" y1="300" x2="800" y2="300" stroke="#0f2a52" stroke-width="2" opacity="0.6"/>
<rect x="377" y="98" width="6" height="208" rx="2" fill="#b3a265"/>
<g fill="#d95555">
  <rect x="367" y="102" width="26" height="22" rx="4"/>
  <rect x="367" y="122" width="26" height="22" rx="4"/>
  <rect x="367" y="142" width="26" height="22" rx="4"/>
  <rect x="367" y="162" width="26" height="22" rx="4"/>
  <rect x="367" y="192" width="26" height="22" rx="4"/>
  <rect x="367" y="212" width="26" height="22" rx="4"/>
  <rect x="367" y="232" width="26" height="22" rx="4"/>
  <rect x="367" y="252" width="26" height="22" rx="4"/>
</g>
<g fill="#fdfcf7">
  <rect x="365" y="100.5" width="30" height="3.5" rx="1.75"/>
  <rect x="365" y="120.5" width="30" height="3.5" rx="1.75"/>
  <rect x="365" y="140.5" width="30" height="3.5" rx="1.75"/>
  <rect x="365" y="160.5" width="30" height="3.5" rx="1.75"/>
  <rect x="365" y="212.5" width="30" height="3.5" rx="1.75"/>
  <rect x="365" y="232.5" width="30" height="3.5" rx="1.75"/>
  <rect x="365" y="252.5" width="30" height="3.5" rx="1.75"/>
  <rect x="365" y="272.5" width="30" height="3.5" rx="1.75"/>
</g>
<circle cx="373" cy="188" r="2.5" fill="#ffd25e"/>
<circle cx="387" cy="188" r="2.5" fill="#ffd25e"/>
<path d="M384 190 C394 187 404 187 412 190" fill="none" stroke="#000000" stroke-width="3" stroke-linecap="round"/>
<g fill="none" stroke="#000000" stroke-width="3" opacity="0.9">
  <circle cx="414" cy="196" r="8"/>
  <circle cx="414" cy="206" r="8"/>
  <circle cx="414" cy="216" r="8"/>
  <circle cx="414" cy="226" r="8"/>
</g>
<path d="M414 234 C420 256 448 272 494 268" fill="none" stroke="#000000" stroke-width="3" stroke-linecap="round"/>
<path d="M354 302 L366 342 Q367 346 372 346 L388 346 Q393 346 394 342 L406 302 Z" fill="#e8734a"/>
<ellipse cx="380" cy="302" rx="26" ry="5.5" fill="#d8cfae"/>
<g fill="#000000">
  <circle cx="508" cy="282" r="8.5"/>
  <rect x="499" y="291" width="19" height="52" rx="9"/>
  <line x1="503" y1="297" x2="494" y2="268" stroke="#000000" stroke-width="5" stroke-linecap="round"/>
  <rect x="489" y="254" width="10" height="14" rx="2"/>
  <line x1="494" y1="254" x2="494" y2="243" stroke="#000000" stroke-width="2"/>
  <circle cx="548" cy="288" r="8"/>
  <rect x="540" y="297" width="17" height="48" rx="8"/>
  <circle cx="581" cy="294" r="7.5"/>
  <rect x="574" y="302" width="15" height="42" rx="7"/>
</g>
<circle cx="494" cy="259" r="1.8" fill="#d95555"/>
<text x="652" y="222" text-anchor="middle" fill="#d8cfae" font-size="13" font-family="Georgia, serif">the hill — twenty miles</text>
<text x="356" y="182" text-anchor="end" fill="#ffd25e" font-size="12.5" font-style="italic" font-family="Georgia, serif">one inch, exactly</text>
<line x1="358" y1="184" x2="376" y2="187" stroke="#ffd25e" stroke-width="1.5" opacity="0.8"/>
</svg>
