<svg xmlns="http://www.w3.org/2000/svg" viewBox="0 0 800 360" role="img" aria-labelledby="t-starlight">
<title id="t-starlight">Dusk at the meadow: a girl's silhouette sits at a glowing radio under two oaks, where the orange extension-cord dipole catches the last light above a bright gray-line horizon, with the first stars and fireflies coming out</title>
<rect x="0" y="0" width="800" height="360" fill="#0f2a52"/>
<g fill="#fdfcf7" opacity="0.8">
  <circle cx="70" cy="44" r="2"/><circle cx="180" cy="30" r="1.5"/><circle cx="300" cy="52" r="1.7"/>
  <circle cx="430" cy="36" r="2.2"/><circle cx="560" cy="26" r="1.6"/><circle cx="680" cy="52" r="2"/>
  <circle cx="750" cy="96" r="1.5"/><circle cx="360" cy="84" r="1.4"/><circle cx="240" cy="74" r="1.3"/>
  <circle cx="520" cy="96" r="1.4"/><circle cx="110" cy="108" r="1.5"/><circle cx="630" cy="120" r="1.3"/>
</g>
<g fill="#fdfcf7">
  <circle cx="210" cy="120" r="6" opacity="0.2"/><circle cx="210" cy="120" r="2.4"/>
  <circle cx="480" cy="140" r="5.5" opacity="0.2"/><circle cx="480" cy="140" r="2.2"/>
</g>
<text x="400" y="58" text-anchor="middle" fill="#ffd25e" font-size="15" font-style="italic" font-family="Georgia, serif">CQ…</text>
<rect x="0" y="244" width="800" height="86" fill="#e8734a" opacity="0.12"/>
<rect x="0" y="264" width="800" height="66" fill="#ffd25e" opacity="0.15"/>
<rect x="0" y="284" width="800" height="46" fill="#ffd25e" opacity="0.28"/>
<ellipse cx="400" cy="310" rx="70" ry="10" fill="#ffd25e" opacity="0.5"/>
<path d="M0 360 L0 322 Q400 300 800 322 L800 360 Z" fill="#1a3a6b"/>
<g fill="#1a3a6b">
  <rect x="129" y="186" width="16" height="138"/>
  <circle cx="142" cy="150" r="52"/><circle cx="100" cy="178" r="38"/>
  <circle cx="186" cy="176" r="40"/><circle cx="140" cy="108" r="33"/>
</g>
<g fill="#1a3a6b">
  <rect x="652" y="190" width="16" height="134"/>
  <circle cx="660" cy="152" r="54"/><circle cx="616" cy="180" r="38"/>
  <circle cx="704" cy="178" r="40"/><circle cx="658" cy="106" r="35"/>
</g>
<polyline points="145,232 272,244 400,247 528,244 653,232" fill="none" stroke="#ffd25e" stroke-width="7" stroke-linecap="round" stroke-linejoin="round" opacity="0.22"/>
<polyline points="145,232 272,244 400,247 528,244 653,232" fill="none" stroke="#e8734a" stroke-width="3.5" stroke-linecap="round" stroke-linejoin="round"/>
<circle cx="145" cy="232" r="2.5" fill="#e8734a"/><circle cx="653" cy="232" r="2.5" fill="#e8734a"/>
<circle cx="400" cy="248" r="4" fill="#b3a265"/>
<rect x="396" y="250" width="8" height="14" rx="3" fill="#b3a265"/>
<path d="M400 264 Q478 300 556 284" fill="none" stroke="#b3a265" stroke-width="1.8"/>
<g fill="#1a3a6b">
  <rect x="492" y="299" width="36" height="7" rx="3"/>
  <line x1="499" y1="306" x2="496" y2="326" stroke="#1a3a6b" stroke-width="4"/>
  <line x1="521" y1="306" x2="524" y2="326" stroke="#1a3a6b" stroke-width="4"/>
  <rect x="545" y="288" width="105" height="9" rx="3"/>
  <rect x="552" y="297" width="7" height="26"/>
  <rect x="636" y="297" width="7" height="26"/>
</g>
<g>
  <rect x="560" y="262" width="54" height="26" rx="4" fill="#0f2a52"/>
  <rect x="574" y="268" width="20" height="13" fill="#3f6db5"/>
  <line x1="577" y1="272" x2="591" y2="272" stroke="#fdfcf7" stroke-width="1" opacity="0.5"/>
  <line x1="577" y1="276" x2="591" y2="276" stroke="#fdfcf7" stroke-width="1" opacity="0.5"/>
  <circle cx="567" cy="275" r="3" fill="#d8cfae"/>
  <circle cx="567" cy="283" r="2" fill="#d8cfae"/>
</g>
<g fill="#1a3a6b">
  <line x1="520" y1="302" x2="517" y2="326" stroke="#1a3a6b" stroke-width="5" stroke-linecap="round"/>
  <path d="M503 248 Q497 268 500 292 L522 292 Q525 264 519 246 Q511 241 503 248 Z"/>
  <rect x="502" y="288" width="28" height="11" rx="5"/>
  <path d="M515 256 Q532 266 550 278" fill="none" stroke="#1a3a6b" stroke-width="5" stroke-linecap="round"/>
  <circle cx="508" cy="234" r="11"/>
  <circle cx="496" cy="226" r="4.5"/>
</g>
<ellipse cx="540" cy="254" rx="22" ry="15" fill="#3f6db5" opacity="0.22"/>
<circle cx="515" cy="240" r="8" fill="#3f6db5" opacity="0.28"/>
<g fill="#ffd25e">
  <circle cx="120" cy="306" r="6" opacity="0.16"/><circle cx="120" cy="306" r="2.2"/>
  <circle cx="200" cy="322" r="1.7"/>
  <circle cx="268" cy="300" r="6" opacity="0.16"/><circle cx="268" cy="300" r="2"/>
  <circle cx="330" cy="326" r="1.6"/>
  <circle cx="420" cy="318" r="2"/>
  <circle cx="470" cy="296" r="1.6"/>
  <circle cx="700" cy="306" r="6" opacity="0.16"/><circle cx="700" cy="306" r="2.2"/>
  <circle cx="748" cy="326" r="1.7"/>
  <circle cx="356" cy="288" r="1.5"/>
  <circle cx="160" cy="332" r="1.6"/>
  <circle cx="640" cy="330" r="1.5"/>
  <circle cx="740" cy="286" r="1.6"/>
</g>
<text x="130" y="306" text-anchor="middle" fill="#d8cfae" font-size="14" font-family="Georgia, serif">the gray line</text>
</svg>
