<svg xmlns="http://www.w3.org/2000/svg" viewBox="0 0 800 360" role="img" aria-labelledby="t12">
<title id="t12">Inside the barn on storm night, lantern light warms the five-gallon GO-KIT bucket with the pop-can dipole sticking out, coax cables hang disconnected and draped on the wall, a logbook and pencil rest on the table, and outside the open door rain lashes past a watching kid as lightning flickers over dark fields</title>
<rect x="0" y="0" width="800" height="360" fill="#0f2a52"/>
<rect x="0" y="320" width="800" height="40" fill="#1a3a6b" opacity="0.35"/>
<rect x="470" y="46" width="300" height="274" fill="#1a3a6b"/>
<g fill="#0f2a52" opacity="0.45">
  <ellipse cx="535" cy="62" rx="62" ry="16"/>
  <ellipse cx="655" cy="56" rx="75" ry="19"/>
  <ellipse cx="722" cy="72" rx="44" ry="14"/>
</g>
<path d="M470 272 Q535 250 600 266 Q688 284 770 256 L770 320 L470 320 Z" fill="#0f2a52"/>
<g fill="#0f2a52">
  <rect x="503" y="256" width="5" height="18"/>
  <rect x="541" y="252" width="5" height="18"/>
  <rect x="579" y="256" width="5" height="18"/>
</g>
<line x1="498" y1="263" x2="588" y2="259" stroke="#0f2a52" stroke-width="3"/>
<g stroke="#fdfcf7" stroke-width="2" opacity="0.5" stroke-linecap="round">
  <line x1="500" y1="90" x2="485" y2="126"/><line x1="548" y1="82" x2="533" y2="118"/>
  <line x1="596" y1="96" x2="581" y2="132"/><line x1="644" y1="84" x2="629" y2="120"/>
  <line x1="692" y1="94" x2="677" y2="130"/><line x1="738" y1="86" x2="723" y2="122"/>
  <line x1="520" y1="148" x2="505" y2="184"/><line x1="566" y1="158" x2="551" y2="194"/>
  <line x1="614" y1="146" x2="599" y2="182"/><line x1="660" y1="158" x2="645" y2="194"/>
  <line x1="706" y1="148" x2="691" y2="184"/><line x1="752" y1="156" x2="737" y2="192"/>
  <line x1="494" y1="208" x2="479" y2="244"/><line x1="540" y1="218" x2="525" y2="254"/>
  <line x1="588" y1="210" x2="573" y2="246"/><line x1="636" y1="220" x2="621" y2="256"/>
  <line x1="684" y1="212" x2="669" y2="248"/><line x1="730" y1="220" x2="715" y2="256"/>
  <line x1="516" y1="272" x2="501" y2="308"/><line x1="612" y1="276" x2="597" y2="312"/>
  <line x1="660" y1="272" x2="645" y2="308"/><line x1="756" y1="268" x2="741" y2="304"/>
</g>
<polyline points="648,52 628,104 644,108 612,168 626,171 602,222" fill="none" stroke="#ffd25e" stroke-width="14" stroke-linecap="round" stroke-linejoin="round" opacity="0.22"/>
<polyline points="648,52 628,104 644,108 612,168 626,171 602,222" fill="none" stroke="#ffd25e" stroke-width="5" stroke-linecap="round" stroke-linejoin="round"/>
<polyline points="628,104 608,130" fill="none" stroke="#ffd25e" stroke-width="3" stroke-linecap="round"/>
<rect x="470" y="46" width="300" height="274" fill="none" stroke="#b3a265" stroke-width="6"/>
<g>
  <rect x="380" y="58" width="78" height="252" fill="#1a3a6b"/>
  <g stroke="#0f2a52" stroke-width="2" opacity="0.45">
    <line x1="399" y1="60" x2="399" y2="308"/>
    <line x1="419" y1="60" x2="419" y2="308"/>
    <line x1="439" y1="60" x2="439" y2="308"/>
  </g>
  <g stroke="#b3a265" stroke-width="5">
    <line x1="386" y1="86" x2="452" y2="86"/>
    <line x1="386" y1="284" x2="452" y2="284"/>
    <line x1="386" y1="284" x2="452" y2="86"/>
  </g>
  <rect x="452" y="98" width="10" height="15" rx="2" fill="#b3a265"/>
  <rect x="452" y="256" width="10" height="15" rx="2" fill="#b3a265"/>
</g>
<g>
  <rect x="56" y="52" width="128" height="62" rx="4" fill="#1a3a6b" stroke="#b3a265" stroke-width="4"/>
  <text x="120" y="90" text-anchor="middle" fill="#fdfcf7" font-size="16" font-family="Georgia, serif">STORM KITS</text>
  <line x1="78" y1="100" x2="162" y2="100" stroke="#fdfcf7" stroke-width="2" opacity="0.45"/>
</g>
<g fill="#ffd25e">
  <circle cx="353" cy="266" r="128" opacity="0.07"/>
  <circle cx="353" cy="266" r="88" opacity="0.09"/>
  <circle cx="353" cy="266" r="56" opacity="0.11"/>
  <circle cx="353" cy="266" r="30" opacity="0.15"/>
  <ellipse cx="350" cy="336" rx="140" ry="18" opacity="0.08"/>
</g>
<g>
  <circle cx="298" cy="206" r="3" fill="#b3a265"/>
  <circle cx="352" cy="206" r="3" fill="#b3a265"/>
  <path d="M298 208 Q325 260 352 208" fill="none" stroke="#d8cfae" stroke-width="5" stroke-linecap="round"/>
  <rect x="294" y="196" width="8" height="11" rx="2" fill="#b3a265"/>
  <rect x="348" y="196" width="8" height="11" rx="2" fill="#b3a265"/>
  <circle cx="306" cy="238" r="2.5" fill="#b3a265"/>
  <circle cx="340" cy="238" r="2.5" fill="#b3a265"/>
  <path d="M306 240 Q323 272 340 240" fill="none" stroke="#d8cfae" stroke-width="4" stroke-linecap="round" opacity="0.85"/>
  <rect x="302" y="230" width="7" height="10" rx="2" fill="#b3a265"/>
  <rect x="336" y="230" width="7" height="10" rx="2" fill="#b3a265"/>
</g>
<g>
  <rect x="52" y="248" width="154" height="12" rx="3" fill="#b3a265"/>
  <rect x="62" y="260" width="10" height="62" fill="#b3a265"/>
  <rect x="176" y="260" width="10" height="62" fill="#b3a265"/>
</g>
<g>
  <rect x="76" y="226" width="36" height="22" rx="2" fill="#fdfcf7"/>
  <rect x="112" y="226" width="36" height="22" rx="2" fill="#fdfcf7"/>
  <line x1="112" y1="226" x2="112" y2="248" stroke="#b3a265" stroke-width="2"/>
  <g stroke="#1a3a6b" stroke-width="1.5" opacity="0.8">
    <line x1="81" y1="233" x2="105" y2="233"/>
    <line x1="81" y1="238" x2="103" y2="238"/>
    <line x1="81" y1="243" x2="100" y2="243"/>
    <line x1="117" y1="233" x2="141" y2="233"/>
    <line x1="117" y1="238" x2="139" y2="238"/>
    <line x1="117" y1="243" x2="136" y2="243"/>
  </g>
  <line x1="156" y1="244" x2="178" y2="237" stroke="#e8734a" stroke-width="4" stroke-linecap="round"/>
  <circle cx="154.5" cy="244.8" r="2.6" fill="#d95555"/>
</g>
<g>
  <rect x="328" y="278" width="50" height="42" fill="#b3a265"/>
  <line x1="332" y1="292" x2="374" y2="292" stroke="#0f2a52" stroke-width="2" opacity="0.35"/>
  <line x1="332" y1="306" x2="374" y2="306" stroke="#0f2a52" stroke-width="2" opacity="0.35"/>
</g>
<g>
  <ellipse cx="353" cy="278" rx="15" ry="4" fill="#1a3a6b"/>
  <rect x="342" y="254" width="22" height="24" rx="7" fill="#b3a265"/>
  <rect x="346" y="258" width="14" height="15" rx="5" fill="#ffd25e"/>
  <path d="M353 271 Q349.5 266 353 260.5 Q356.5 266 353 271 Z" fill="#e8734a"/>
  <rect x="346" y="248" width="14" height="7" rx="3" fill="#1a3a6b"/>
  <path d="M346 250 Q353 238 360 250" fill="none" stroke="#b3a265" stroke-width="2.5"/>
</g>
<rect x="260" y="88" width="6" height="170" rx="2" fill="#b3a265"/>
<g>
  <path d="M226 252 L238 330 Q239 334 244 334 L282 334 Q287 334 288 330 L300 252 Z" fill="#e8734a"/>
  <ellipse cx="263" cy="252" rx="37" ry="7" fill="#d8cfae"/>
  <ellipse cx="263" cy="252" rx="28" ry="4.5" fill="#0f2a52"/>
  <circle cx="228" cy="255" r="3" fill="#b3a265"/>
  <circle cx="298" cy="255" r="3" fill="#b3a265"/>
  <text x="263" y="302" text-anchor="middle" fill="#fdfcf7" font-size="14" letter-spacing="1" font-family="Georgia, serif">GO-KIT</text>
</g>
<g fill="#d95555">
  <rect x="252" y="92" width="22" height="18" rx="4"/>
  <rect x="252" y="110" width="22" height="18" rx="4"/>
  <rect x="252" y="128" width="22" height="18" rx="4"/>
  <rect x="252" y="146" width="22" height="18" rx="4"/>
  <rect x="252" y="176" width="22" height="18" rx="4"/>
  <rect x="252" y="194" width="22" height="18" rx="4"/>
  <rect x="252" y="212" width="22" height="18" rx="4"/>
  <rect x="252" y="230" width="22" height="18" rx="4"/>
</g>
<g fill="#fdfcf7">
  <rect x="250" y="90.25" width="26" height="3.5" rx="1.75"/>
  <rect x="250" y="108.25" width="26" height="3.5" rx="1.75"/>
  <rect x="250" y="126.25" width="26" height="3.5" rx="1.75"/>
  <rect x="250" y="144.25" width="26" height="3.5" rx="1.75"/>
  <rect x="250" y="174.25" width="26" height="3.5" rx="1.75"/>
  <rect x="250" y="192.25" width="26" height="3.5" rx="1.75"/>
  <rect x="250" y="210.25" width="26" height="3.5" rx="1.75"/>
  <rect x="250" y="228.25" width="26" height="3.5" rx="1.75"/>
</g>
<circle cx="256" cy="170" r="2.5" fill="#ffd25e"/>
<circle cx="270" cy="170" r="2.5" fill="#ffd25e"/>
<path d="M263 174 C275 179 277 189 269 196" fill="none" stroke="#000000" stroke-width="2.5" stroke-linecap="round"/>
<g fill="#000000">
  <circle cx="486" cy="214" r="11"/>
  <rect x="473" y="226" width="26" height="92" rx="12"/>
  <line x1="496" y1="242" x2="519" y2="216" stroke="#000000" stroke-width="5" stroke-linecap="round"/>
</g>
</svg>
